<svg width="589" height="84" viewBox="0 0 589 84" fill="none" xmlns="http://www.w3.org/2000/svg">
<path d="M0.5 64.5V0.515625H22.209L34.25 37.2979C34.5723 38.3232 34.8652 39.3193 35.1289 40.2861C35.3926 41.2529 35.627 42.2783 35.832 43.3623H36.0078C36.2129 42.2783 36.4473 41.2529 36.7109 40.2861C36.9746 39.3193 37.2529 38.3232 37.5459 37.2979L49.543 0.515625H71.2959V64.5H56.0469V26.9268C56.0469 25.9307 56.0469 24.8174 56.0469 23.5869C56.0762 22.3564 56.1348 21.2432 56.2227 20.2471H55.959C55.7539 21.3018 55.5049 22.4297 55.2119 23.6309C54.9482 24.8027 54.6699 25.9014 54.377 26.9268L42.6436 64.5H28.625L16.7598 26.9268C16.4961 25.9307 16.1885 24.7441 15.8369 23.3672C15.5146 21.9902 15.3242 20.9502 15.2656 20.2471H15.002C15.0312 20.9209 15.0752 21.9609 15.1338 23.3672C15.1924 24.7441 15.2217 25.9307 15.2217 26.9268V64.5H0.5ZM76.1299 82.6055V72.9814C77.1553 73.1865 78.166 73.333 79.1621 73.4209C80.1875 73.5381 81.1689 73.5967 82.1064 73.5967C84.1865 73.5967 85.959 72.9082 87.4238 71.5312C88.8887 70.1543 90.1484 67.8545 91.2031 64.6318L74.9873 24.0264H89.5332L97.0479 45.9111C97.3701 46.7021 97.6191 47.3906 97.7949 47.9766C98 48.5625 98.1904 49.1631 98.3662 49.7783H98.542C98.7178 49.1631 98.8936 48.5625 99.0693 47.9766C99.2744 47.3613 99.5234 46.6436 99.8164 45.8232L107.902 24.0264H121.218L105.09 65.6865C102.424 72.5713 99.626 77.2881 96.6963 79.8369C93.7666 82.3857 89.9141 83.6602 85.1387 83.6602C82.9707 83.6602 81.1982 83.5723 79.8213 83.3965C78.4736 83.25 77.2432 82.9863 76.1299 82.6055Z" fill="#4E5FFF"/>
<path d="M124.865 64.5V0.515625H140.378V52.1953H164.284V64.5H124.865ZM169.03 64.5V24.0264H184.279V64.5H169.03ZM168.239 9.83203C168.239 7.66406 168.972 5.8623 170.437 4.42676C171.901 2.96191 173.996 2.22949 176.721 2.22949C179.416 2.22949 181.481 2.94727 182.917 4.38281C184.353 5.81836 185.07 7.62012 185.07 9.78809C185.07 11.9268 184.323 13.7578 182.829 15.2812C181.364 16.7754 179.284 17.5225 176.589 17.5225C173.923 17.5225 171.857 16.7754 170.393 15.2812C168.957 13.7578 168.239 11.9414 168.239 9.83203ZM191.838 64.5V0.339844H206.779V29.0361C208.156 27.1611 209.885 25.6816 211.965 24.5977C214.045 23.4844 216.55 22.9277 219.479 22.9277C224.577 22.9277 228.708 24.8174 231.872 28.5967C235.065 32.3467 236.662 37.1807 236.662 43.0986V44.5049C236.662 50.4229 235.036 55.3887 231.784 59.4023C228.532 63.3867 224.357 65.3789 219.26 65.3789C216.33 65.3789 213.781 64.9102 211.613 63.9727C209.475 63.0059 207.805 61.6582 206.604 59.9297H206.516V64.5H191.838ZM206.779 50.2617C207.365 51.5801 208.259 52.7373 209.46 53.7334C210.69 54.7295 212.287 55.2275 214.25 55.2275C216.652 55.2275 218.454 54.2021 219.655 52.1514C220.886 50.1006 221.501 47.5225 221.501 44.417V43.4502C221.501 40.4033 220.886 37.957 219.655 36.1113C218.454 34.2656 216.55 33.3428 213.942 33.3428C212.185 33.3428 210.69 33.8408 209.46 34.8369C208.229 35.8037 207.336 36.9316 206.779 38.2207V50.2617Z" fill="#98A8F8"/>
<path d="M258.898 64.5L279.069 0.515625H296.428L316.115 64.5H300.91L288.605 21.2139C288.254 20.042 287.961 19.0166 287.727 18.1377C287.521 17.2295 287.331 16.4531 287.155 15.8086H287.067C286.892 16.4531 286.687 17.2148 286.452 18.0938C286.218 18.9727 285.939 20.0127 285.617 21.2139L273.884 64.5H258.898ZM270.456 51.7559L272.565 41.6045H302.009L304.294 51.7559H270.456ZM317.258 44.8564V43.4062C317.258 36.9609 319.25 31.9072 323.234 28.2451C327.219 24.583 332.609 22.752 339.406 22.752C346.174 22.752 351.389 24.1729 355.051 27.0146C358.713 29.8564 360.646 33.9873 360.852 39.4072L360.896 40.374H346.394V39.8467C346.394 37.7959 345.837 36.1992 344.724 35.0566C343.64 33.8848 342.043 33.2988 339.934 33.2988C337.502 33.2988 335.627 34.1191 334.309 35.7598C333.02 37.4004 332.375 39.7881 332.375 42.9229V45.2959C332.375 48.3721 333.005 50.7891 334.265 52.5469C335.554 54.2754 337.429 55.1396 339.89 55.1396C342.087 55.1396 343.728 54.5684 344.812 53.4258C345.925 52.2832 346.496 50.7158 346.525 48.7236V48.1084H360.939V49.1191C360.822 54.3926 358.918 58.4502 355.227 61.292C351.535 64.1338 346.291 65.5547 339.494 65.5547C332.727 65.5547 327.321 63.709 323.278 60.0176C319.265 56.3262 317.258 51.2725 317.258 44.8564ZM364.279 44.8564V43.4062C364.279 36.9609 366.271 31.9072 370.256 28.2451C374.24 24.583 379.631 22.752 386.428 22.752C393.195 22.752 398.41 24.1729 402.072 27.0146C405.734 29.8564 407.668 33.9873 407.873 39.4072L407.917 40.374H393.415V39.8467C393.415 37.7959 392.858 36.1992 391.745 35.0566C390.661 33.8848 389.064 33.2988 386.955 33.2988C384.523 33.2988 382.648 34.1191 381.33 35.7598C380.041 37.4004 379.396 39.7881 379.396 42.9229V45.2959C379.396 48.3721 380.026 50.7891 381.286 52.5469C382.575 54.2754 384.45 55.1396 386.911 55.1396C389.108 55.1396 390.749 54.5684 391.833 53.4258C392.946 52.2832 393.518 50.7158 393.547 48.7236V48.1084H407.961V49.1191C407.844 54.3926 405.939 58.4502 402.248 61.292C398.557 64.1338 393.312 65.5547 386.516 65.5547C379.748 65.5547 374.343 63.709 370.3 60.0176C366.286 56.3262 364.279 51.2725 364.279 44.8564ZM411.301 44.8564V43.4502C411.301 37.2686 413.396 32.2734 417.585 28.4648C421.804 24.6562 427.399 22.752 434.372 22.752C441.374 22.752 446.97 24.6562 451.159 28.4648C455.378 32.2734 457.487 37.2686 457.487 43.4502V44.8564C457.487 51.0967 455.378 56.1064 451.159 59.8857C446.97 63.665 441.374 65.5547 434.372 65.5547C427.37 65.5547 421.774 63.665 417.585 59.8857C413.396 56.1064 411.301 51.0967 411.301 44.8564ZM426.418 42.9229V45.2959C426.418 48.1963 427.092 50.5693 428.439 52.415C429.787 54.2314 431.765 55.1396 434.372 55.1396C436.979 55.1396 438.957 54.2314 440.305 52.415C441.652 50.5693 442.326 48.1963 442.326 45.2959V42.9229C442.326 40.0518 441.652 37.7373 440.305 35.9795C438.957 34.1924 436.979 33.2988 434.372 33.2988C431.765 33.2988 429.787 34.1924 428.439 35.9795C427.092 37.7373 426.418 40.0518 426.418 42.9229ZM462.541 50.7451V24.0264H477.57V48.5039C477.57 50.8184 478.054 52.4443 479.021 53.3818C479.987 54.29 481.335 54.7441 483.063 54.7441C484.587 54.7441 485.92 54.2754 487.062 53.3379C488.205 52.3711 489.113 51.1553 489.787 49.6904V24.0264H504.816V64.5H490.051L489.963 58.875H489.919C488.835 60.8672 487.165 62.4785 484.909 63.709C482.653 64.9395 479.855 65.5547 476.516 65.5547C472.355 65.5547 468.986 64.4121 466.408 62.127C463.83 59.8125 462.541 56.0186 462.541 50.7451ZM512.111 64.5V24.0264H526.921V29.6074H527.053C528.078 27.5859 529.719 25.9746 531.975 24.7734C534.26 23.5723 537.058 22.9717 540.368 22.9717C544.558 22.9717 547.941 24.1289 550.52 26.4434C553.098 28.7285 554.387 32.4932 554.387 37.7373V64.5H539.401V40.4619C539.401 38.1475 538.903 36.5068 537.907 35.54C536.94 34.5439 535.593 34.0459 533.864 34.0459C532.341 34.0459 530.993 34.5 529.821 35.4082C528.649 36.3164 527.741 37.5176 527.097 39.0117V64.5H512.111ZM558.21 34.793V24.0264H588.049V34.793H558.21ZM564.538 51.7998V26.0479L564.978 25.5205V10.623H579.26V48.0645C579.26 50.9648 579.626 52.8252 580.358 53.6455C581.091 54.4658 582.277 54.876 583.918 54.876C584.709 54.876 585.441 54.832 586.115 54.7441C586.818 54.6562 587.492 54.4805 588.137 54.2168V64.2803C587.287 64.5146 586.013 64.749 584.313 64.9834C582.614 65.2471 580.461 65.3789 577.854 65.3789C573.547 65.3789 570.251 64.3242 567.966 62.2148C565.681 60.0762 564.538 56.6045 564.538 51.7998Z" fill="white"/>
</svg>
