<svg width="18" height="18" viewBox="0 0 18 18" fill="none" xmlns="http://www.w3.org/2000/svg">
<path fill-rule="evenodd" clip-rule="evenodd" d="M16.9549 1.04501C16.0762 0.166333 14.6516 0.166333 13.7729 1.04501L9 5.81796L4.22705 1.04502C3.34837 0.166336 1.92375 0.166336 1.04507 1.04502C0.166393 1.9237 0.166393 3.34832 1.04507 4.227L5.81802 8.99994L1.04502 13.7729C0.166343 14.6516 0.166342 16.0762 1.04502 16.9549C1.9237 17.8336 3.34832 17.8336 4.227 16.9549L9 12.1819L13.773 16.9549C14.6517 17.8336 16.0763 17.8336 16.955 16.9549C17.8337 16.0762 17.8337 14.6516 16.955 13.7729L12.182 8.99994L16.9549 4.22699C17.8336 3.34831 17.8336 1.92369 16.9549 1.04501Z" fill="#E30000" fill-opacity="0.57"/>
</svg>
