<svg width="24" height="23" viewBox="0 0 24 23" fill="none" xmlns="http://www.w3.org/2000/svg">
<mask id="path-1-inside-1_31_779" fill="white">
<path fill-rule="evenodd" clip-rule="evenodd" d="M23.1473 10.5429C23.1473 15.9045 18.0814 20.2509 11.8324 20.2509C11.7359 20.2509 11.6398 20.2498 11.5439 20.2478C11.017 20.2365 10.4912 20.3472 10.035 20.611L6.24306 22.8037C5.65516 23.1437 4.91263 22.5166 4.85906 21.6349L4.71575 19.2763C4.66818 18.4934 4.25476 17.7885 3.66989 17.2659C1.71752 15.5214 0.517517 13.1524 0.517517 10.5429C0.517517 5.18136 5.58336 0.834961 11.8324 0.834961C18.0814 0.834961 23.1473 5.18136 23.1473 10.5429ZM19.9145 10.0987C19.9145 13.7865 16.296 16.7761 11.8324 16.7761C11.8245 16.7761 11.8166 16.7761 11.8087 16.7761C11.4203 16.7752 11.0322 16.8332 10.6725 16.9797L8.47637 17.874C7.91775 18.1015 7.27549 17.5792 7.16914 16.8109L7.14553 16.6404C7.04014 15.879 6.58388 15.2237 6.00131 14.7223C4.60722 13.5225 3.75039 11.8932 3.75039 10.0987C3.75039 6.41085 7.36885 3.42127 11.8324 3.42127C16.296 3.42127 19.9145 6.41085 19.9145 10.0987Z"/>
</mask>
<path fill-rule="evenodd" clip-rule="evenodd" d="M23.1473 10.5429C23.1473 15.9045 18.0814 20.2509 11.8324 20.2509C11.7359 20.2509 11.6398 20.2498 11.5439 20.2478C11.017 20.2365 10.4912 20.3472 10.035 20.611L6.24306 22.8037C5.65516 23.1437 4.91263 22.5166 4.85906 21.6349L4.71575 19.2763C4.66818 18.4934 4.25476 17.7885 3.66989 17.2659C1.71752 15.5214 0.517517 13.1524 0.517517 10.5429C0.517517 5.18136 5.58336 0.834961 11.8324 0.834961C18.0814 0.834961 23.1473 5.18136 23.1473 10.5429ZM19.9145 10.0987C19.9145 13.7865 16.296 16.7761 11.8324 16.7761C11.8245 16.7761 11.8166 16.7761 11.8087 16.7761C11.4203 16.7752 11.0322 16.8332 10.6725 16.9797L8.47637 17.874C7.91775 18.1015 7.27549 17.5792 7.16914 16.8109L7.14553 16.6404C7.04014 15.879 6.58388 15.2237 6.00131 14.7223C4.60722 13.5225 3.75039 11.8932 3.75039 10.0987C3.75039 6.41085 7.36885 3.42127 11.8324 3.42127C16.296 3.42127 19.9145 6.41085 19.9145 10.0987Z" fill="url(#paint0_linear_31_779)"/>
<path d="M6.24306 22.8037L6.2377 22.7944L6.24306 22.8037ZM4.85906 21.6349L4.84837 21.6355L4.85906 21.6349ZM8.47637 17.874L8.48041 17.8839L8.47637 17.874ZM7.16914 16.8109L7.15854 16.8124L7.16914 16.8109ZM7.14553 16.6404L7.13493 16.6418L7.14553 16.6404ZM6.00131 14.7223L5.99433 14.7304L6.00131 14.7223ZM11.8087 16.7761L11.8087 16.7868L11.8087 16.7761ZM10.6725 16.9797L10.6685 16.9698L10.6725 16.9797ZM3.66989 17.2659L3.66276 17.2739L3.66989 17.2659ZM11.5439 20.2478L11.5436 20.2585L11.5439 20.2478ZM10.035 20.611L10.0297 20.6017L10.035 20.611ZM11.8324 20.2616C18.0857 20.2616 23.158 15.9119 23.158 10.5429H23.1366C23.1366 15.8971 18.0771 20.2402 11.8324 20.2402V20.2616ZM11.5436 20.2585C11.6396 20.2605 11.7359 20.2616 11.8324 20.2616V20.2402C11.736 20.2402 11.6399 20.2391 11.5441 20.2371L11.5436 20.2585ZM6.24842 22.813L10.0404 20.6203L10.0297 20.6017L6.2377 22.7944L6.24842 22.813ZM4.84837 21.6355C4.87533 22.0791 5.07558 22.4591 5.34378 22.6856C5.61204 22.9122 5.94953 22.9858 6.24842 22.813L6.2377 22.7944C5.94869 22.9616 5.62096 22.8917 5.35759 22.6692C5.09415 22.4468 4.89636 22.0724 4.86974 21.6342L4.84837 21.6355ZM4.70507 19.2769L4.84837 21.6355L4.86974 21.6342L4.72643 19.2756L4.70507 19.2769ZM0.506813 10.5429C0.506813 13.1558 1.70842 15.5276 3.66276 17.2739L3.67702 17.2579C1.72662 15.5152 0.528221 13.149 0.528221 10.5429H0.506813ZM11.8324 0.824257C5.57905 0.824257 0.506813 5.17397 0.506813 10.5429H0.528221C0.528221 5.18875 5.58768 0.845665 11.8324 0.845665V0.824257ZM23.158 10.5429C23.158 5.17397 18.0857 0.824257 11.8324 0.824257V0.845665C18.0771 0.845665 23.1366 5.18875 23.1366 10.5429H23.158ZM11.8324 16.7868C16.2999 16.7868 19.9252 13.7943 19.9252 10.0987H19.9038C19.9038 13.7788 16.2921 16.7654 11.8324 16.7654V16.7868ZM11.8087 16.7868C11.8166 16.7868 11.8245 16.7868 11.8324 16.7868V16.7654C11.8245 16.7654 11.8166 16.7654 11.8087 16.7654L11.8087 16.7868ZM8.48041 17.8839L10.6765 16.9896L10.6685 16.9698L8.47234 17.8641L8.48041 17.8839ZM7.15854 16.8124C7.21206 17.199 7.40047 17.5242 7.6464 17.7242C7.89238 17.9242 8.19667 17.9995 8.48041 17.8839L8.47234 17.8641C8.19746 17.9761 7.90131 17.9039 7.65991 17.7076C7.41847 17.5112 7.23257 17.1911 7.17975 16.8095L7.15854 16.8124ZM7.13493 16.6418L7.15854 16.8124L7.17975 16.8095L7.15614 16.6389L7.13493 16.6418ZM3.73969 10.0987C3.73969 11.8968 4.59826 13.5289 5.99433 14.7304L6.00829 14.7142C4.61618 13.5161 3.76109 11.8897 3.76109 10.0987H3.73969ZM11.8324 3.41056C7.36494 3.41056 3.73969 6.40312 3.73969 10.0987H3.76109C3.76109 6.41859 7.37276 3.43197 11.8324 3.43197V3.41056ZM19.9252 10.0987C19.9252 6.40312 16.2999 3.41056 11.8324 3.41056V3.43197C16.2921 3.43197 19.9038 6.41859 19.9038 10.0987H19.9252ZM7.15614 16.6389C7.05028 15.8742 6.59212 15.2167 6.00829 14.7142L5.99433 14.7304C6.57564 15.2307 7.03001 15.8839 7.13493 16.6418L7.15614 16.6389ZM11.8087 16.7654C11.4193 16.7645 11.0298 16.8227 10.6685 16.9698L10.6765 16.9896C11.0347 16.8438 11.4213 16.7859 11.8087 16.7868L11.8087 16.7654ZM4.72643 19.2756C4.67866 18.4893 4.26349 17.7819 3.67702 17.2579L3.66276 17.2739C4.24603 17.7951 4.65771 18.4975 4.70507 19.2769L4.72643 19.2756ZM11.5441 20.2371C11.0156 20.2257 10.4878 20.3368 10.0297 20.6017L10.0404 20.6203C10.4946 20.3576 11.0184 20.2472 11.5436 20.2585L11.5441 20.2371Z" fill="black" mask="url(#path-1-inside-1_31_779)"/>
<defs>
<linearGradient id="paint0_linear_31_779" x1="25.8995" y1="11.6145" x2="0.925666" y2="17.3767" gradientUnits="userSpaceOnUse">
<stop stop-color="#98A8F8"/>
<stop offset="1" stop-color="#4E5FFF"/>
</linearGradient>
</defs>
</svg>
