<svg width="25" height="24" viewBox="0 0 25 24" fill="none" xmlns="http://www.w3.org/2000/svg">
<path d="M10.7615 1.73817C11.5193 -0.202104 14.2649 -0.202107 15.0227 1.73817L16.5497 5.64776C16.8727 6.47488 17.6453 7.0403 18.5314 7.09812L22.7296 7.37205C24.7845 7.50613 25.6296 10.0748 24.0556 11.4028L20.758 14.185C20.0903 14.7484 19.8018 15.6429 20.0145 16.4903L21.0638 20.6687C21.5689 22.6803 19.3508 24.2718 17.607 23.1489L14.1304 20.9104C13.3763 20.4248 12.408 20.4248 11.6538 20.9104L8.17728 23.1489C6.43345 24.2718 4.21538 22.6803 4.72051 20.6687L5.76972 16.4903C5.9825 15.6429 5.694 14.7484 5.02625 14.185L1.72863 11.4028C0.154704 10.0748 0.999784 7.50613 3.0547 7.37205L7.2529 7.09812C8.13898 7.0403 8.91154 6.47488 9.23458 5.64777L10.7615 1.73817Z" fill="url(#paint0_linear_31_776)"/>
<defs>
<linearGradient id="paint0_linear_31_776" x1="27.2254" y1="-0.286021" x2="-2.50568" y2="28.9383" gradientUnits="userSpaceOnUse">
<stop stop-color="#FF8412"/>
<stop offset="1" stop-color="#FBCE5C"/>
</linearGradient>
</defs>
</svg>
