<svg width="35" height="34" viewBox="0 0 35 34" fill="none" xmlns="http://www.w3.org/2000/svg">
<path d="M13.8471 3.33412C15.2316 -0.221578 20.263 -0.221579 21.6475 3.33412L23.0733 6.99559C23.6633 8.51085 25.0776 9.54724 26.7002 9.65343L30.7067 9.91564C34.4635 10.1615 36.011 14.8552 33.1371 17.2872L29.9191 20.0104C28.7013 21.041 28.1752 22.6743 28.5627 24.2219L29.5735 28.2594C30.4955 31.9423 26.4318 34.8516 23.2426 32.7919L20.018 30.7094C18.6358 29.8167 16.8588 29.8167 15.4766 30.7094L12.252 32.7919C9.06279 34.8516 4.99913 31.9423 5.92114 28.2594L6.93194 24.2219C7.31938 22.6743 6.79334 21.041 5.57552 20.0104L2.35748 17.2872C-0.516346 14.8552 1.03118 10.1615 4.7879 9.91564L8.79446 9.65343C10.4171 9.54724 11.8313 8.51085 12.4213 6.99559L13.8471 3.33412Z" fill="#B0B0B0"/>
</svg>
