<svg width="73" height="73" viewBox="0 0 73 73" fill="none" xmlns="http://www.w3.org/2000/svg">
<circle cx="36.3139" cy="36.6228" r="36.3049" fill="#98A8F8"/>
<path fill-rule="evenodd" clip-rule="evenodd" d="M26.3702 60.8571C22.4523 59.5016 20.3398 55.4895 20.3398 51.3437C20.3398 47.2204 21.8674 43.4538 24.3875 40.579C27.2887 37.2695 32.3069 38.2805 36.7081 38.2805C41.0903 38.2805 46.0855 37.2889 48.9725 40.5858C51.489 43.4597 53.0142 47.2236 53.0142 51.3437C53.0142 55.4898 50.9014 59.5022 46.9832 60.8577C43.754 61.9748 40.2866 62.5816 36.6775 62.5816C33.0678 62.5816 29.5998 61.9746 26.3702 60.8571ZM47.7261 23.423C47.7261 30.1683 42.7935 35.6365 36.7087 35.6365C30.624 35.6365 25.6913 30.1683 25.6913 23.423C25.6913 16.6777 30.624 11.2095 36.7087 11.2095C42.7935 11.2095 47.7261 16.6777 47.7261 23.423Z" fill="#FAF7F0"/>
</svg>
